# Blender 3.3.1
# www.blender.org
mtllib weirdsword.mtl
o Cube
v 1.000000 1.000000 -1.000000
v 1.000000 -1.000000 -1.000000
v 1.000000 1.000000 1.000000
v 1.000000 -1.000000 1.000000
v -1.000000 1.000000 -1.000000
v -1.000000 -1.000000 -1.000000
v -1.000000 1.000000 1.000000
v -1.000000 -1.000000 1.000000
v 1.108064 1.418566 1.108064
v -1.108064 1.418566 1.108064
v 1.108064 1.418566 -1.108064
v -1.108064 1.418566 -1.108064
v 1.108064 2.762067 1.108064
v -1.108064 2.762067 1.108064
v 1.108064 2.762067 -1.108064
v -1.108064 2.762067 -1.108064
v 0.795332 5.068541 0.795332
v -0.795332 5.068541 0.795332
v 0.795332 5.068541 -0.795332
v -0.795332 5.068541 -0.795332
v 0.795332 10.126378 0.795332
v -0.795332 10.126378 0.795332
v 0.795332 10.126378 -0.795332
v -0.795332 10.126378 -0.795332
v 4.062984 12.838038 -0.448341
v 4.062984 13.555167 -0.448341
v -4.212840 12.809576 -0.483929
v -4.212840 13.583630 -0.483929
v -4.877367 12.809576 0.483929
v -4.877367 12.809576 -0.483929
v -4.930919 13.596808 0.483929
v -4.930919 13.596808 -0.483929
v -4.331273 14.295627 0.311436
v -4.331273 14.295627 -0.311436
v -4.705381 14.282447 0.311436
v -4.705381 14.282447 -0.311436
v 4.799510 12.838038 -0.448341
v 4.799510 12.838038 0.448341
v 4.799510 13.555167 -0.448341
v 4.799510 13.555167 0.448341
v 4.277443 13.966892 -0.187248
v 4.277443 13.966892 0.187248
v 4.585051 13.966892 -0.187248
v 4.585051 13.966892 0.187248
v -0.235781 22.262890 0.235781
v 0.235781 29.942295 -0.235781
v -0.235781 29.942295 -0.235781
v -0.235781 29.942295 0.235781
v -0.235781 29.942295 -0.235781
v -5.389699 13.850032 0.483929
v -5.389699 13.850032 -0.483929
v -4.861890 14.342359 0.311436
v -4.861890 14.342359 -0.311436
v -5.616083 14.362333 0.483929
v -5.616083 14.362333 -0.483929
v -4.900122 14.453807 0.311436
v -4.900122 14.453807 -0.311436
v -5.560485 14.783722 0.483929
v -5.560485 14.783722 -0.483929
v -4.880116 14.542753 0.311436
v -4.880116 14.542753 -0.311436
v -5.369977 15.107729 0.483929
v -5.369977 15.107729 -0.483929
v -4.824909 14.634581 0.311436
v -4.824909 14.634581 -0.311436
v -5.052882 15.353084 0.483929
v -5.052882 15.353084 -0.483929
v -4.763975 14.691646 0.311436
v -4.763975 14.691646 -0.311436
v -4.752056 15.410128 0.483929
v -4.752056 15.410128 -0.483929
v -4.686775 14.691305 0.311436
v -4.686775 14.691305 -0.311436
v -4.379087 15.417938 0.483929
v -4.379087 15.417938 -0.483929
v -4.473799 14.702398 0.311436
v -4.473799 14.702398 -0.311436
v -4.042198 15.314003 0.483929
v -4.042198 15.314003 -0.483929
v -4.375956 14.674022 0.311436
v -4.375956 14.674022 -0.311436
v -3.666270 15.015996 0.483929
v -3.666270 15.015996 -0.483929
v -4.222645 14.556194 0.311436
v -4.222645 14.556194 -0.311436
v -3.472551 14.658647 0.483929
v -3.472551 14.658647 -0.483929
v -4.113940 14.327603 0.311436
v -4.113940 14.327603 -0.311436
v 0.785106 13.986737 0.630367
v 0.785106 13.986737 -0.630367
v 0.235781 22.411839 0.226256
v 0.246007 22.108829 0.091268
v 0.246007 22.108829 -0.091268
v 0.386191 12.969887 0.795332
v -0.385974 12.969887 0.795332
v -0.385974 13.417299 0.795332
v 0.386423 13.406022 0.795332
v 0.604995 12.750930 -0.795325
v 0.954011 12.576672 -0.750992
v -0.604931 12.750930 -0.795332
v -0.795332 12.370130 -0.786693
v -0.604931 13.639475 -0.795326
v 0.605290 13.621803 -0.795299
v 0.064802 22.037241 -0.257187
v -0.235781 22.601212 -0.066101
v -0.131864 21.961899 -0.255402
v 0.170075 22.779394 -0.071621
v -0.608022 14.170540 -0.726986
v -0.963170 13.497151 -0.752103
v 0.453150 14.268508 -0.719078
v 0.845005 13.980256 -0.640429
v 0.000000 -1.000000 -1.000000
v 1.000000 0.000000 -1.000000
v 1.000000 0.000000 1.000000
v -1.000000 0.000000 -1.000000
v 0.000000 1.000000 1.000000
v 1.000000 1.000000 0.000000
v 0.000000 1.000000 -1.000000
v 1.000000 -1.000000 0.000000
v 0.000000 1.418566 1.108064
v 1.108064 1.418566 0.000000
v 0.000000 1.418566 -1.108064
v -1.054032 1.209283 1.054032
v -1.054032 1.209283 -1.054032
v 1.054032 1.209283 -1.054032
v 1.054032 1.209283 1.054032
v 0.000000 2.762067 1.108064
v 1.108064 2.762067 0.000000
v 0.000000 2.762067 -1.108064
v 1.108064 2.090316 -1.108064
v 1.108064 2.090316 1.108064
v -1.108064 2.090316 1.108064
v -1.108064 2.090316 -1.108064
v 0.000000 5.068541 0.795332
v 0.795332 5.068541 0.000000
v -0.795332 5.068541 0.000000
v 0.000000 5.068541 -0.795332
v -0.951698 3.915304 -0.951698
v 0.951698 3.915304 0.951698
v 0.951698 3.915304 -0.951698
v 0.000000 10.126378 0.795332
v 0.795332 10.126378 0.000000
v -0.795332 10.126378 0.000000
v 0.000000 10.126378 -0.795332
v -0.795332 7.597459 -0.795332
v 0.795332 7.597459 -0.795332
v 0.795332 7.597459 0.795332
v -0.795332 7.597459 0.795332
v 4.062984 13.555167 0.000000
v 4.062984 13.196603 -0.448341
v -4.212840 13.583630 0.000000
v -4.212840 13.196603 -0.483929
v -4.904142 13.203192 -0.483929
v -4.545103 12.809576 -0.483929
v -4.571879 13.590219 -0.483929
v -4.571879 13.590219 0.483929
v -4.331273 14.295627 0.000000
v -4.705381 14.282447 0.000000
v -4.518327 14.289037 -0.311436
v -4.518327 14.289037 0.311436
v -4.818150 13.939628 0.397683
v -4.818150 13.939628 -0.397683
v -4.272057 13.939629 -0.397683
v -4.272057 13.939629 0.397683
v 4.799510 12.838038 0.000000
v 4.799510 13.555167 0.000000
v 4.799510 13.196603 0.448341
v 4.799510 13.196603 -0.448341
v 4.431247 12.838038 -0.448341
v 4.431247 13.555167 -0.448341
v 4.277443 13.966892 0.000000
v 4.585051 13.966892 0.000000
v 4.431247 13.966892 0.187248
v 4.431247 13.966892 -0.187248
v 4.170213 13.761030 -0.317795
v 4.692280 13.761030 -0.317795
v 4.692280 13.761030 0.317795
v 0.235781 29.942295 0.000000
v 0.000000 29.942295 -0.235781
v -4.861890 14.342359 0.000000
v -5.125794 14.096195 0.397683
v -5.125794 14.096195 -0.397683
v -5.160309 13.723420 -0.483929
v -4.783636 14.312403 0.311436
v -4.783636 14.312403 -0.311436
v -4.900122 14.453807 -0.000000
v -5.258102 14.408070 0.397683
v -5.258102 14.408070 -0.397683
v -5.502891 14.106182 -0.483929
v -4.881006 14.398083 -0.311436
v -4.881006 14.398083 0.311436
v -5.502891 14.106182 0.483929
v -4.880116 14.542753 -0.000000
v -5.220301 14.663238 -0.397683
v -4.890120 14.498280 0.311436
v -5.588284 14.573028 -0.483929
v -4.890120 14.498280 -0.311436
v -4.824909 14.634581 -0.000000
v -5.097443 14.871155 -0.397683
v -4.852513 14.588667 0.311436
v -5.465231 14.945725 -0.483929
v -4.852513 14.588667 -0.311436
v -5.052882 15.353084 0.000000
v -4.908429 15.022365 -0.397683
v -5.211430 15.230406 -0.483929
v -4.794442 14.663113 -0.311436
v -4.752056 15.410128 0.000000
v -4.719416 15.050716 -0.397683
v -4.902469 15.381605 0.483929
v -4.902469 15.381605 -0.483929
v -4.725375 14.691475 -0.311436
v -4.379087 15.417938 0.000000
v -4.426443 15.060168 -0.397683
v -4.565572 15.414033 0.483929
v -4.565572 15.414033 -0.483929
v -4.580287 14.696852 -0.311436
v -4.042198 15.314003 -0.000000
v -4.209077 14.994013 -0.397683
v -4.210643 15.365971 -0.483929
v -4.424877 14.688210 -0.311436
v -4.210643 15.365971 0.483929
v -3.666270 15.015996 0.000000
v -3.944458 14.786095 -0.397683
v -3.854234 15.164999 0.483929
v -3.854234 15.164999 -0.483929
v -4.299300 14.615108 -0.311436
v -3.472551 14.658647 0.000000
v -3.793246 14.493125 -0.397683
v -3.569411 14.837321 -0.483929
v -4.168293 14.441898 -0.311436
v -3.569411 14.837321 0.483929
v 0.785106 13.986737 0.000000
v 0.240894 22.260334 0.158762
v 0.246007 22.108829 0.000000
v 0.515556 18.047783 -0.360818
v 0.515556 18.047783 0.360818
v 0.000000 22.337364 0.231019
v 0.000839 14.201408 0.767954
v 0.795332 11.138775 0.784524
v -0.502756 18.240631 0.499498
v 0.503595 18.298141 0.499475
v 0.778257 14.085590 0.701531
v -0.700131 12.560530 -0.791012
v 0.000032 12.750930 -0.795328
v 0.779503 12.663801 -0.773159
v 0.079340 12.473400 -0.768843
v -0.604931 13.195202 -0.795329
v 0.605143 13.186367 -0.795312
v 0.000179 13.630639 -0.795313
v 0.874671 11.351524 -0.773162
v -0.795332 11.248254 -0.791012
v 0.874672 12.363922 0.011362
v 2.508497 12.707355 -0.599667
v -2.504086 12.589853 -0.635311
v -0.085490 22.319225 -0.161644
v -0.032853 22.690304 -0.068861
v 0.019106 22.370647 -0.163511
v -0.033531 21.999569 -0.256294
v -0.785596 13.833845 -0.739545
v -0.077436 14.219524 -0.723032
v 0.649078 14.124382 -0.679754
v -0.059082 13.738704 -0.696266
v 0.507540 18.379826 -0.356025
v 0.160643 18.115204 -0.487240
v -0.599475 18.049181 -0.409102
v -0.271610 18.103889 -0.492086
v -0.235781 26.271753 -0.150941
v -0.235781 22.432051 0.084840
v 0.202928 26.360844 -0.153701
v -0.866450 13.857762 0.005555
v 0.208041 22.444111 -0.081444
v 0.815055 13.983497 -0.635398
v 0.202928 22.595615 0.077318
v -0.784050 13.568314 -0.773715
v 0.725148 13.801029 -0.717864
v -2.588005 13.540390 -0.618016
v -0.879251 12.933640 -0.769398
v 0.899508 13.278463 -0.695711
v 2.453994 13.767712 -0.544385
v 0.808207 14.082350 0.066132
v -0.435543 18.076534 -0.450594
v 0.334092 18.247515 -0.421632
v -0.068259 13.979115 -0.709649
v -0.033192 22.344936 -0.162577
v 0.000106 13.190784 -0.795320
v -2.539645 13.720695 0.002778
v 2.481246 13.237534 -0.572026
v -2.546045 13.065122 -0.626664
v 0.039686 12.612165 -0.782085
v -0.551116 18.144907 0.045198
v 0.224467 22.352222 0.038659
v 0.219355 26.268955 0.038659
v -3.569411 14.837321 0.000000
v -4.076767 14.890054 -0.397683
v -3.854234 15.164999 0.000000
v -3.868852 14.639610 -0.397683
v -4.210643 15.365971 -0.000000
v -4.572929 15.055443 -0.397683
v -4.317760 15.027090 -0.397683
v -4.813922 15.036541 -0.397683
v -4.902469 15.381605 0.000000
v -4.565572 15.414033 0.000000
v -4.852513 14.588667 -0.000000
v -5.158872 14.767197 -0.397683
v -5.002936 14.946760 -0.397683
v -4.890120 14.498280 -0.000000
v -5.239202 14.535654 -0.397683
v -5.191948 14.252132 0.397683
v -4.881006 14.398083 -0.000000
v -4.783636 14.312403 0.000000
v -4.971972 14.017912 -0.397683
v -5.191948 14.252132 -0.397683
v -0.055483 18.109547 -0.489663
v -0.029451 13.684671 -0.745789
v 0.000000 29.942295 0.000000
v 0.000420 18.269386 0.499486
v -0.742091 13.064421 -0.782363
v -0.016426 26.316299 -0.152321
v 4.692280 13.761030 0.000000
v 4.431247 13.966892 0.000000
v 4.431247 13.761030 -0.317795
v 4.431247 13.196603 -0.448341
v 4.799510 13.196603 0.000000
v -4.545103 13.939629 0.397683
v -4.272057 13.939629 0.000000
v -4.545103 13.939629 -0.397683
v -4.518327 14.289037 0.000000
v -4.558491 13.199898 -0.483929
v 0.509576 18.172962 0.430147
v 2.435595 13.818758 0.033066
v 0.511548 18.213804 -0.358421
v 0.039670 11.299889 -0.782087
v 0.835002 11.245150 0.005681
v 0.515556 18.047783 0.000000
v 0.796656 14.034544 0.033066
v 0.752326 13.232415 -0.745511
v 0.000000 7.597459 0.795332
v -0.795332 7.597459 0.000000
v 0.795332 7.597459 0.000000
v 0.951698 3.915304 0.000000
v 0.000000 3.915304 -0.951698
v 0.000000 7.597459 -0.795332
v 0.000000 2.090316 -1.108064
v 0.000000 2.090316 1.108064
v 0.000000 1.209283 1.054032
v 0.000000 1.209283 -1.054032
v 1.054032 1.209283 0.000000
v 1.108064 2.090316 0.000000
v 0.000000 0.000000 -1.000000
v 1.000000 0.000000 0.000000
v -4.027928 12.962930 0.499773
v -4.389832 12.842018 0.483929
v -4.027858 13.429034 0.498934
v -4.390322 13.552405 0.483929
v -0.977504 12.375265 0.759713
v -0.795332 12.139177 0.698476
v -0.957470 13.995093 0.749415
v -0.578397 14.180109 0.765195
v -2.457942 13.718470 0.627359
v -2.505414 13.848322 0.442196
v 3.873062 12.993107 0.467252
v 4.243453 12.838038 0.343991
v 3.873043 13.397196 0.467058
v 4.243569 13.522607 0.448341
v 0.982515 12.385516 0.754753
v 0.593685 12.150962 0.767354
v 0.964076 13.953332 0.754032
v 0.768701 14.211441 0.690767
v 2.381720 13.682308 0.614262
v 2.423314 13.852832 0.418510
v 0.167342 29.873856 0.235695
v 0.235781 29.942295 0.167342
v 0.068439 29.873856 0.235738
v -0.068264 29.942263 0.236127
v 0.167346 26.235544 0.231798
v 0.230838 26.106981 0.231029
v 0.068435 26.219925 0.232752
v -0.068435 26.059734 0.234048
v -0.235781 29.942295 0.235781
v -0.195765 29.942287 0.235864
v -0.235781 29.942295 0.195765
v -0.235781 29.942295 -0.040018
v -0.235781 29.942295 0.040018
v -0.195765 29.942295 0.000000
v -0.235781 26.163773 0.195765
v -0.235781 26.059097 0.235367
v -0.235781 26.213472 0.082141
v -0.235781 26.160872 0.002699
vn -0.9683 -0.2500 -0.0000
vn -0.0000 -0.0000 1.0000
vn -1.0000 -0.0000 -0.0000
vn -0.0000 -1.0000 -0.0000
vn 1.0000 -0.0000 -0.0000
vn -0.0000 -0.0000 -1.0000
vn 0.9683 -0.2500 -0.0000
vn -0.0000 -0.2500 -0.9683
vn -0.0000 -0.2500 0.9683
vn -0.9909 0.1344 -0.0000
vn -0.0000 0.1344 0.9909
vn -0.0000 0.1344 -0.9909
vn 0.9909 0.1344 -0.0000
vn 0.0187 0.2245 0.9743
vn 0.2222 0.0328 -0.9745
vn 0.1708 0.9740 -0.1486
vn 0.1058 -0.9606 -0.2571
vn -0.0910 -0.0739 0.9931
vn 0.0012 -1.0000 -0.0000
vn 0.9978 0.0662 -0.0000
vn 0.9965 -0.0514 0.0663
vn 0.0150 0.0074 -0.9999
vn -0.8985 0.3439 0.2729
vn 0.0588 0.0581 0.9966
vn 0.3282 -0.0370 0.9439
vn -0.0830 0.0060 0.9965
vn -0.0214 0.5160 0.8563
vn 0.9978 0.0651 -0.0126
vn -0.9977 -0.0679 -0.0000
vn -0.4832 -0.8755 -0.0000
vn 0.0281 -0.9994 0.0193
vn -0.0352 0.9994 -0.0000
vn -0.0035 0.2424 -0.9702
vn 0.9864 0.1641 -0.0000
vn -0.0034 0.2374 0.9714
vn -0.0000 0.5355 -0.8445
vn -0.0000 1.0000 -0.0000
vn -0.0000 0.5355 0.8445
vn 0.8869 0.4620 -0.0000
vn -0.8869 0.4620 -0.0000
vn -0.0008 -0.0231 -0.9997
vn -0.0924 0.0133 -0.9956
vn -0.0028 0.0660 0.9978
vn -0.0000 0.0107 0.9999
vn 0.0147 -0.0009 0.9999
vn -0.0203 0.4840 -0.8748
vn 0.0438 0.0577 -0.9974
vn 0.2224 0.0968 -0.9701
vn 0.0832 0.2173 0.9726
vn 0.1144 0.2139 -0.9701
vn 0.3575 0.9339 -0.0000
vn 0.2404 -0.0541 0.9692
vn 0.9459 0.3245 -0.0000
vn 0.2243 0.0904 0.9703
vn -0.9147 -0.4042 -0.0000
vn 0.2035 -0.1202 0.9717
vn -0.9914 0.1308 -0.0000
vn 0.2356 -0.0325 -0.9713
vn 0.9756 -0.2194 -0.0000
vn 0.1473 -0.1880 -0.9711
vn -0.8620 0.5069 -0.0000
vn 0.2036 -0.1199 -0.9717
vn 0.8570 -0.5153 -0.0000
vn 0.0351 -0.2339 0.9716
vn 0.6835 -0.7299 -0.0000
vn 0.1488 -0.1860 0.9712
vn -0.6120 0.7909 -0.0000
vn -0.0209 0.9998 -0.0000
vn -0.1863 0.9825 -0.0000
vn 0.0403 -0.2311 -0.9721
vn -0.0044 -1.0000 -0.0000
vn -0.0692 -0.2256 -0.9718
vn 0.0061 -0.2345 -0.9721
vn 0.0520 -0.9986 -0.0000
vn 0.0075 -0.2340 0.9722
vn -0.1464 -0.1863 0.9715
vn -0.2785 -0.9604 -0.0000
vn -0.0687 -0.2256 0.9718
vn 0.2948 0.9556 -0.0000
vn -0.2064 -0.1094 -0.9723
vn 0.6212 0.7836 -0.0000
vn -0.1470 -0.1861 -0.9715
vn -0.6094 -0.7929 -0.0000
vn 0.4586 -0.8886 -0.0000
vn -0.9031 -0.4295 -0.0000
vn -0.2088 -0.1078 0.9720
vn 0.8791 0.4766 -0.0000
vn 0.9992 -0.0075 -0.0399
vn 0.9960 0.0788 -0.0431
vn -0.9935 0.0720 0.0881
vn -0.0314 -0.0716 0.9969
vn 0.0351 0.0531 0.9980
vn -0.0056 0.0656 0.9978
vn 0.9729 0.0751 0.2189
vn 0.0287 -0.1281 -0.9913
vn -0.0862 0.0058 -0.9963
vn 0.0713 0.0332 -0.9969
vn -0.0344 0.9866 -0.1595
vn 0.0643 -0.2506 0.9659
vn 0.0753 -0.0959 -0.9925
vn 0.2748 0.0798 -0.9582
vn -0.3372 0.0884 -0.9373
vn 0.0001 1.0000 0.0001
vn 0.0151 -0.0002 0.9999
vn -0.1653 0.0769 -0.9833
vn -0.1733 0.0846 -0.9812
vn -0.3327 0.0944 -0.9383
vn 0.3206 0.0824 -0.9436
vn 0.3177 0.0844 -0.9444
vn 0.2748 0.0820 -0.9580
vn 0.0571 -0.0181 -0.9982
vn 0.0286 -0.0098 -0.9995
vn 0.0444 -0.1124 -0.9927
vn 0.0700 -0.2727 0.9595
vn -0.1298 0.2578 -0.9574
vn -0.1316 0.2617 -0.9561
vn 0.9792 -0.0551 0.1952
vn -0.9668 0.0521 0.2500
vn -0.0409 0.9316 -0.3613
vn 0.0863 0.0336 -0.9957
vn 0.0851 0.0725 -0.9937
vn 0.0742 0.0719 -0.9946
vn -0.0835 0.0059 -0.9965
vn -0.0830 0.0148 -0.9964
vn -0.0853 0.0145 -0.9963
vn 0.0220 -0.0570 -0.9981
vn 0.0087 -0.0547 -0.9985
vn 0.0121 -0.1437 -0.9896
vn -0.9935 0.0725 0.0882
vn -0.9932 0.0723 0.0917
vn 0.9940 0.1049 -0.0317
vn 0.9916 0.1079 -0.0711
vn 0.9919 0.0908 -0.0887
vn 0.0051 -0.0009 1.0000
vn 0.9886 -0.0092 -0.1502
vn -0.1459 -0.1872 -0.9714
vn -0.1454 -0.1865 -0.9716
vn -0.1467 -0.1857 -0.9716
vn -0.2093 -0.1043 -0.9723
vn -0.2119 -0.1056 -0.9716
vn -0.2084 -0.1105 -0.9718
vn 0.0095 -0.2348 -0.9720
vn 0.0095 -0.2333 -0.9724
vn 0.0060 -0.2334 -0.9724
vn -0.0678 -0.2262 -0.9717
vn -0.0677 -0.2256 -0.9719
vn -0.0691 -0.2253 -0.9718
vn 0.0246 -0.2338 -0.9720
vn 0.0252 -0.2391 -0.9707
vn 0.0408 -0.2339 -0.9714
vn 0.6836 -0.7299 -0.0000
vn 0.2030 -0.1206 -0.9717
vn 0.2034 -0.1208 -0.9716
vn 0.2037 -0.1200 -0.9716
vn 0.1536 -0.1843 -0.9708
vn 0.1516 -0.1820 -0.9715
vn 0.1464 -0.1868 -0.9714
vn 0.2341 -0.0393 -0.9714
vn 0.2373 -0.0399 -0.9706
vn 0.2372 -0.0328 -0.9709
vn 0.2224 0.0968 0.9701
vn 0.2243 0.0976 0.9696
vn 0.2282 0.0919 0.9693
vn 0.2360 -0.0341 0.9712
vn 0.1038 0.2225 -0.9694
vn 0.1005 0.2154 -0.9713
vn 0.1122 0.2099 -0.9713
vn 0.1091 0.2145 0.9706
vn 0.0919 0.2401 0.9664
vn 0.1133 0.2118 0.9707
vn 0.2243 0.0904 -0.9703
vn 0.2282 0.0919 -0.9693
vn 0.2243 0.0976 -0.9696
vn 0.0448 0.0615 -0.9971
vn 0.0041 0.0602 -0.9982
vn 0.0042 0.0596 -0.9982
vn -0.0790 0.9968 0.0082
vn -0.1846 0.9300 -0.3178
vn -0.0633 0.4959 -0.8661
vn 0.9994 -0.0033 -0.0334
vn -0.0027 0.0657 0.9978
vn -0.0928 0.9402 -0.3279
vn 0.9978 0.0645 -0.0117
vn -0.1153 0.0105 -0.9933
vn -0.1113 0.0041 -0.9938
vn -0.0817 0.0055 -0.9966
vn -0.0008 -0.0230 -0.9997
vn -0.0025 -0.0229 -0.9997
vn -0.0025 -0.0231 -0.9997
vn 0.1696 0.9849 -0.0360
vn 0.2196 0.0145 0.9755
vn 0.0986 0.0013 0.9951
vn -0.0035 0.2424 0.9702
vn 0.0025 0.2413 0.9704
vn -0.1212 0.9851 -0.1217
vn -0.2056 -0.0083 0.9786
vn -0.0034 0.2374 -0.9714
vn 0.0025 0.2376 -0.9714
vn 0.0025 0.2413 -0.9704
vn 0.9970 0.0628 -0.0461
vn 0.9970 0.0622 -0.0450
vn -0.9987 0.0175 -0.0472
vn 0.1463 0.9881 -0.0465
vn 0.1468 0.9829 -0.1109
vn 0.9704 0.0867 -0.2256
vn 0.9398 0.0867 -0.3306
vn 0.3379 -0.0386 0.9404
vn 0.0144 0.0140 -0.9998
vn 0.0050 0.0145 -0.9999
vn 0.0052 0.0076 -1.0000
vn -0.0270 0.0318 0.9991
vn 0.9995 -0.0185 0.0239
vn 0.9985 -0.0510 0.0217
vn 0.0036 -0.0004 1.0000
vn 0.9914 -0.0021 -0.1310
vn -0.6931 0.7129 -0.1072
vn -0.7195 0.6935 -0.0374
vn -0.9989 0.0433 -0.0159
vn 0.4049 0.0361 -0.9137
vn 0.3698 0.0842 -0.9253
vn 0.2271 0.0780 -0.9707
vn -0.0425 0.0007 0.9991
vn 0.0789 -0.0205 0.9967
vn -0.1014 -0.1609 0.9817
vn -0.1069 0.5043 0.8569
vn -0.2086 0.6245 0.7526
vn -0.1612 -0.9827 -0.0912
vn 0.1838 -0.0936 0.9785
vn -0.0854 0.0249 0.9960
vn 0.1578 -0.2767 0.9479
vn 0.2220 0.5614 0.7972
vn 0.1182 0.4695 0.8750
vn 0.1422 -0.9784 -0.1503
vn 0.4665 0.0068 0.8845
vn 0.1460 0.4975 0.8551
vn 0.0064 -0.0007 1.0000
vn 0.0101 -0.0007 0.9999
vn -0.0000 1.0000 0.0001
vn 0.0001 1.0000 -0.0000
vn -0.7043 -0.0001 0.7099
vt 0.625000 0.500000
vt 0.375000 0.500000
vt 0.625000 0.750000
vt 0.375000 0.750000
vt 0.625000 0.250000
vt 0.375000 0.250000
vt 0.125000 0.500000
vt 0.625000 1.000000
vt 0.625000 0.000000
vt 0.375000 0.000000
vt 0.125000 0.750000
vt 0.375000 1.000000
vt 0.625000 0.750000
vt 0.625000 0.000000
vt 0.625000 1.000000
vt 0.625000 0.500000
vt 0.625000 0.250000
vt 0.625000 0.750000
vt 0.625000 1.000000
vt 0.625000 0.000000
vt 0.625000 0.500000
vt 0.625000 0.250000
vt 0.625000 0.750000
vt 0.625000 1.000000
vt 0.625000 0.000000
vt 0.625000 0.500000
vt 0.625000 0.250000
vt 0.625000 0.750000
vt 0.625000 0.000000
vt 0.625000 1.000000
vt 0.625000 0.500000
vt 0.625000 0.250000
vt 0.625000 0.500000
vt 0.625000 0.500000
vt 0.625000 0.250000
vt 0.875000 0.500000
vt 0.625000 0.250000
vt 0.625000 1.000000
vt 0.625000 0.000000
vt 0.625000 0.250000
vt 0.625000 0.000000
vt 0.625000 1.000000
vt 0.625000 0.250000
vt 0.625000 1.000000
vt 0.875000 0.750000
vt 0.625000 0.250000
vt 0.875000 0.500000
vt 0.625000 1.000000
vt 0.875000 0.750000
vt 0.875000 0.500000
vt 0.625000 0.250000
vt 0.625000 0.500000
vt 0.625000 0.750000
vt 0.625000 0.500000
vt 0.625000 0.750000
vt 0.625000 0.500000
vt 0.625000 0.750000
vt 0.625000 0.500000
vt 0.625000 0.750000
vt 0.875000 0.750000
vt 0.625000 1.000000
vt 0.625000 0.500000
vt 0.625000 0.250000
vt 0.875000 0.500000
vt 0.875000 0.750000
vt 0.875000 0.500000
vt 0.625000 0.000000
vt 0.625000 1.000000
vt 0.625000 0.250000
vt 0.875000 0.750000
vt 0.625000 1.000000
vt 0.875000 0.500000
vt 0.625000 0.250000
vt 0.625000 0.000000
vt 0.625000 1.000000
vt 0.625000 0.250000
vt 0.625000 1.000000
vt 0.875000 0.750000
vt 0.875000 0.500000
vt 0.625000 0.250000
vt 0.625000 0.000000
vt 0.625000 1.000000
vt 0.625000 0.250000
vt 0.875000 0.750000
vt 0.625000 1.000000
vt 0.875000 0.500000
vt 0.625000 0.250000
vt 0.625000 1.000000
vt 0.625000 0.000000
vt 0.625000 0.250000
vt 0.625000 1.000000
vt 0.875000 0.750000
vt 0.875000 0.500000
vt 0.625000 0.250000
vt 0.625000 1.000000
vt 0.625000 0.000000
vt 0.625000 0.250000
vt 0.625000 1.000000
vt 0.875000 0.750000
vt 0.875000 0.500000
vt 0.625000 0.250000
vt 0.625000 1.000000
vt 0.625000 0.000000
vt 0.625000 0.250000
vt 0.875000 0.750000
vt 0.625000 1.000000
vt 0.875000 0.500000
vt 0.625000 0.250000
vt 0.625000 1.000000
vt 0.625000 0.000000
vt 0.625000 0.250000
vt 0.875000 0.750000
vt 0.625000 1.000000
vt 0.875000 0.500000
vt 0.625000 0.250000
vt 0.625000 1.000000
vt 0.625000 0.000000
vt 0.625000 0.250000
vt 0.625000 1.000000
vt 0.875000 0.750000
vt 0.875000 0.500000
vt 0.625000 0.250000
vt 0.625000 1.000000
vt 0.625000 0.000000
vt 0.625000 0.250000
vt 0.875000 0.750000
vt 0.625000 1.000000
vt 0.875000 0.500000
vt 0.625000 0.250000
vt 0.625000 1.000000
vt 0.625000 0.000000
vt 0.625000 0.250000
vt 0.625000 0.000000
vt 0.875000 0.750000
vt 0.625000 1.000000
vt 0.875000 0.500000
vt 0.625000 0.250000
vt 0.625000 0.724742
vt 0.625000 0.525258
vt 0.625000 0.750000
vt 0.625000 0.754449
vt 0.625000 0.744951
vt 0.625000 0.672194
vt 0.625000 0.577806
vt 0.625000 0.814303
vt 0.625000 0.935662
vt 0.625000 0.935662
vt 0.625000 0.814267
vt 0.625000 0.470085
vt 0.625000 0.504439
vt 0.625000 0.506969
vt 0.625000 0.524939
vt 0.625000 0.500000
vt 0.625000 0.279925
vt 0.625000 0.250000
vt 0.625000 0.248642
vt 0.625000 0.244158
vt 0.625000 0.279925
vt 0.625000 0.470132
vt 0.625000 0.401960
vt 0.875000 0.589956
vt 0.875000 0.591385
vt 0.625000 0.250000
vt 0.625000 0.308643
vt 0.625000 0.454448
vt 0.625000 0.590147
vt 0.625000 0.586330
vt 0.625000 0.465166
vt 0.625000 0.556414
vt 0.625000 0.275606
vt 0.625000 0.221464
vt 0.875000 0.495553
vt 0.625000 0.250000
vt 0.875000 0.504394
vt 0.625000 0.223539
vt 0.625000 0.246011
vt 0.625000 0.446928
vt 0.625000 0.526051
vt 0.625000 0.501318
vt 0.625000 0.500000
vt 0.625000 0.509202
vt 0.625000 0.527245
vt 0.625000 0.523609
vt 0.625000 0.507968
vt 0.375000 0.375000
vt 0.250000 0.500000
vt 0.500000 0.500000
vt 0.500000 0.750000
vt 0.500000 0.250000
vt 0.625000 0.875000
vt 0.625000 0.625000
vt 0.625000 0.375000
vt 0.375000 0.625000
vt 0.625000 0.875000
vt 0.625000 0.625000
vt 0.625000 0.375000
vt 0.625000 1.000000
vt 0.625000 0.000000
vt 0.625000 0.250000
vt 0.625000 0.500000
vt 0.625000 0.750000
vt 0.625000 0.875000
vt 0.625000 0.625000
vt 0.625000 0.375000
vt 0.625000 0.500000
vt 0.625000 0.750000
vt 0.625000 1.000000
vt 0.625000 0.000000
vt 0.625000 0.250000
vt 0.625000 0.875000
vt 0.625000 0.625000
vt 0.625000 0.125000
vt 0.625000 0.375000
vt 0.625000 0.250000
vt 0.625000 0.750000
vt 0.625000 0.500000
vt 0.625000 0.875000
vt 0.625000 0.625000
vt 0.625000 0.125000
vt 0.625000 0.375000
vt 0.625000 0.250000
vt 0.625000 0.500000
vt 0.625000 0.750000
vt 0.625000 1.000000
vt 0.625000 0.000000
vt 0.625000 0.625000
vt 0.625000 0.500000
vt 0.875000 0.625000
vt 0.625000 0.250000
vt 0.625000 0.250000
vt 0.625000 0.250000
vt 0.625000 0.250000
vt 0.625000 1.000000
vt 0.875000 0.625000
vt 0.875000 0.625000
vt 0.625000 0.250000
vt 0.875000 0.500000
vt 0.625000 1.000000
vt 0.875000 0.750000
vt 0.625000 1.000000
vt 0.625000 0.250000
vt 0.875000 0.500000
vt 0.625000 0.250000
vt 0.625000 1.000000
vt 0.875000 0.750000
vt 0.625000 0.625000
vt 0.625000 0.625000
vt 0.625000 0.750000
vt 0.625000 0.500000
vt 0.625000 0.500000
vt 0.625000 0.500000
vt 0.625000 0.625000
vt 0.625000 0.625000
vt 0.625000 0.750000
vt 0.625000 0.500000
vt 0.625000 0.500000
vt 0.625000 0.500000
vt 0.625000 0.750000
vt 0.625000 0.625000
vt 0.750000 0.500000
vt 0.625000 0.375000
vt 0.875000 0.625000
vt 0.625000 1.000000
vt 0.625000 0.250000
vt 0.625000 0.250000
vt 0.875000 0.750000
vt 0.625000 1.000000
vt 0.875000 0.500000
vt 0.625000 0.250000
vt 0.875000 0.625000
vt 0.625000 1.000000
vt 0.625000 0.250000
vt 0.625000 0.250000
vt 0.875000 0.500000
vt 0.625000 0.250000
vt 0.625000 1.000000
vt 0.875000 0.750000
vt 0.625000 0.000000
vt 0.625000 1.000000
vt 0.875000 0.625000
vt 0.625000 0.250000
vt 0.875000 0.750000
vt 0.625000 1.000000
vt 0.625000 0.250000
vt 0.875000 0.500000
vt 0.625000 0.250000
vt 0.875000 0.625000
vt 0.625000 0.250000
vt 0.625000 1.000000
vt 0.875000 0.750000
vt 0.625000 0.250000
vt 0.875000 0.500000
vt 0.625000 0.250000
vt 0.625000 0.125000
vt 0.625000 0.250000
vt 0.625000 0.250000
vt 0.875000 0.500000
vt 0.625000 0.250000
vt 0.625000 0.125000
vt 0.625000 0.250000
vt 0.625000 1.000000
vt 0.625000 0.000000
vt 0.625000 0.250000
vt 0.875000 0.500000
vt 0.625000 0.250000
vt 0.625000 0.125000
vt 0.625000 0.250000
vt 0.625000 1.000000
vt 0.625000 0.000000
vt 0.625000 0.250000
vt 0.875000 0.500000
vt 0.625000 0.250000
vt 0.625000 0.125000
vt 0.625000 0.250000
vt 0.625000 0.250000
vt 0.875000 0.500000
vt 0.625000 0.250000
vt 0.625000 1.000000
vt 0.625000 0.000000
vt 0.625000 0.125000
vt 0.625000 0.250000
vt 0.625000 1.000000
vt 0.625000 0.000000
vt 0.625000 0.250000
vt 0.875000 0.500000
vt 0.625000 0.250000
vt 0.625000 0.125000
vt 0.625000 0.250000
vt 0.625000 0.250000
vt 0.875000 0.500000
vt 0.625000 0.250000
vt 0.625000 1.000000
vt 0.625000 0.000000
vt 0.625000 0.625000
vt 0.625000 0.708572
vt 0.625000 0.713321
vt 0.625000 0.625000
vt 0.625000 0.551532
vt 0.625000 0.698468
vt 0.625000 0.875000
vt 0.625000 0.877224
vt 0.625000 0.874960
vt 0.625000 0.750000
vt 0.625000 0.748301
vt 0.875000 0.749448
vt 0.625000 1.000002
vt 0.625000 0.752182
vt 0.625000 0.752355
vt 0.625000 0.737502
vt 0.625000 0.736179
vt 0.625000 0.264962
vt 0.625000 0.375005
vt 0.625000 0.497512
vt 0.625000 0.485043
vt 0.625000 0.387470
vt 0.625000 0.279925
vt 0.625000 0.470109
vt 0.625000 0.375028
vt 0.625000 0.512470
vt 0.625000 0.503484
vt 0.625000 0.249321
vt 0.625000 0.250000
vt 0.625000 0.626786
vt 0.625000 0.625590
vt 0.625000 0.500000
vt 0.625000 0.502220
vt 0.625000 0.250000
vt 0.625000 0.247079
vt 0.625000 0.325980
vt 0.625000 0.357583
vt 0.625000 0.381545
vt 0.625000 0.386904
vt 0.625000 0.355301
vt 0.625000 0.248535
vt 0.625000 0.249572
vt 0.625000 0.361267
vt 0.625000 0.474123
vt 0.625000 0.478065
vt 0.625000 0.366370
vt 0.625000 0.477883
vt 0.625000 0.541233
vt 0.625000 0.377786
vt 0.625000 0.235732
vt 0.875000 0.547890
vt 0.625000 0.338783
vt 0.875000 0.544978
vt 0.625000 0.250000
vt 0.875000 0.670692
vt 0.875000 0.669978
vt 0.625000 0.543165
vt 0.625000 0.482583
vt 0.875000 0.626645
vt 0.875000 0.620351
vt 0.625000 0.583976
vt 0.625000 0.567110
vt 0.625000 0.525655
vt 0.625000 0.524434
vt 0.625000 0.667549
vt 0.625000 0.665640
vt 0.625000 0.251732
vt 0.625000 0.262968
vt 0.625000 0.489667
vt 0.625000 0.489050
vt 0.875000 0.497776
vt 0.625000 0.250000
vt 0.625000 0.250000
vt 0.625000 0.248005
vt 0.625000 0.500000
vt 0.625000 0.503984
vt 0.625000 0.500000
vt 0.625000 0.513623
vt 0.625000 0.637014
vt 0.625000 0.635613
vt 0.625000 0.287258
vt 0.625000 0.427834
vt 0.625000 0.363819
vt 0.625000 0.356442
vt 0.625000 0.375017
vt 0.875000 0.622675
vt 0.625000 0.500000
vt 0.625000 0.250000
vt 0.625000 0.381237
vt 0.875000 0.648669
vt 0.625000 0.646274
vt 0.625000 0.645320
vt 0.625000 0.125000
vt 0.625000 0.250000
vt 0.625000 0.125000
vt 0.625000 0.250000
vt 0.625000 0.125000
vt 0.625000 0.250000
vt 0.625000 0.250000
vt 0.625000 0.250000
vt 0.625000 0.125000
vt 0.625000 0.125000
vt 0.875000 0.625000
vt 0.625000 0.250000
vt 0.625000 0.250000
vt 0.875000 0.625000
vt 0.625000 0.250000
vt 0.625000 1.000000
vt 0.875000 0.625000
vt 0.875000 0.625000
vt 0.625000 0.250000
vt 0.625000 0.250000
vt 0.625000 0.358284
vt 0.625000 0.370699
vt 0.750000 0.625000
vt 0.625000 0.876092
vt 0.625000 0.263965
vt 0.625000 0.366291
vt 0.625000 0.625000
vt 0.625000 0.625000
vt 0.625000 0.500000
vt 0.625000 0.500000
vt 0.625000 0.625000
vt 0.625000 1.000000
vt 0.875000 0.625000
vt 0.625000 0.250000
vt 0.875000 0.625000
vt 0.625000 0.250000
vt 0.625000 0.725412
vt 0.625000 0.631007
vt 0.625000 0.546382
vt 0.625000 0.381235
vt 0.625000 0.625893
vt 0.625000 0.625000
vt 0.625000 0.630306
vt 0.625000 0.487046
vt 0.625000 0.875000
vt 0.625000 0.125000
vt 0.625000 0.625000
vt 0.625000 0.625000
vt 0.625000 0.375000
vt 0.625000 0.375000
vt 0.625000 0.375000
vt 0.625000 0.875000
vt 0.625000 0.875000
vt 0.625000 0.375000
vt 0.625000 0.625000
vt 0.625000 0.625000
vt 0.500000 0.375000
vt 0.500000 0.625000
vt 0.625000 1.000000
vt 0.625000 0.000000
vt 0.625000 1.000000
vt 0.625000 0.002968
vt 0.625000 1.000000
vt 0.875000 0.749945
vt 0.875000 0.750385
vt 0.625000 1.000000
vt 0.625000 1.000000
vt 0.625000 0.015223
vt 0.625000 1.000791
vt 0.625000 1.000000
vt 0.625000 0.014611
vt 0.625000 1.000000
vt 0.625000 0.968898
vt 0.875000 0.751996
vt 0.875000 0.741270
vt 0.625000 0.968738
vt 0.625000 1.000000
vt 0.625000 1.000000
vt 0.875000 0.711083
vt 0.625000 1.000000
vt 0.625000 0.750000
vt 0.625000 0.750000
vt 0.625000 0.720858
vt 0.625000 0.750000
vt 0.625000 0.759987
vt 0.625000 0.750000
vt 0.625000 0.751021
vt 0.625000 0.750000
vt 0.625000 0.747922
vt 0.625000 0.781677
vt 0.625000 0.782259
vt 0.625000 0.750000
vt 0.625000 0.746775
vt 0.625000 0.750000
vt 0.625000 0.734555
vt 0.625000 0.750390
vt 0.625000 0.736717
vt 0.625000 0.734743
vt 0.625000 0.749663
vt 0.625000 0.750000
vt 0.625000 0.750000
vt 0.625000 0.750000
vt 0.625000 0.709360
vt 0.625000 0.786283
vt 0.625000 0.750000
vt 0.625000 0.713717
vt 0.625000 0.838717
vt 0.625000 0.875000
vt 0.625000 0.911191
vt 0.786190 0.750184
vt 0.625000 0.786281
vt 0.625000 0.747100
vt 0.625000 0.747382
vt 0.625000 0.752621
vt 0.625000 0.838719
vt 0.625000 0.911281
vt 0.625000 1.000000
vt 0.875000 0.750000
vt 0.853786 0.750044
vt 0.625000 0.978786
vt 0.625000 0.999913
vt 0.875000 0.728786
vt 0.875000 0.625000
vt 0.875000 0.603784
vt 0.875000 0.646216
vt 0.000000 0.000002
vt 0.853786 0.625000
vt 0.625000 1.000000
vt 0.875000 0.728786
vt 0.625000 0.999999
vt 0.875000 0.749780
vt 0.875000 0.668547
vt 0.875000 0.626431
s 0
usemtl Material
f 125/199/1 124/198/1 10/14/1 12/17/1
f 115/188/2 3/3/2 117/190/2
f 8/10/3 7/9/3 5/5/3 116/189/3 6/6/3
f 113/186/4 2/2/4 120/193/4
f 351/483/5 118/191/5 3/3/5 115/188/5
f 350/482/6 119/192/6 1/1/6 114/187/6
f 349/481/5 131/205/5 15/21/5 129/203/5
f 348/480/7 126/200/7 11/16/7 122/195/7
f 347/479/8 125/199/8 12/17/8 123/196/8
f 346/478/9 127/201/9 9/13/9 121/194/9
f 139/214/10 137/212/10 20/27/10
f 134/209/3 133/208/3 14/20/3 16/22/3
f 345/477/2 132/206/2 13/18/2 128/202/2
f 344/476/6 134/209/6 16/22/6 130/204/6
f 343/475/6 146/221/6 24/32/6 145/220/6
f 128/202/11 13/18/11 140/215/11
f 342/474/12 139/214/12 20/27/12 138/213/12
f 341/473/13 141/216/13 19/26/13 136/211/13
f 157/233/14 355/491/14 165/244/14 325/457/14
f 340/472/5 147/222/5 23/31/5 143/218/5
f 339/471/3 149/225/3 22/29/3 144/219/3
f 338/470/2 148/223/2 21/28/2 142/217/2
f 337/469/15 246/354/15 99/149/15 249/357/15
f 281/412/16 369/520/16 371/528/16 331/463/16
f 253/364/17 100/150/17 254/366/17
f 365/511/18 363/507/18 38/53/18 168/248/18 40/55/18
f 47/64/19 383/549/19 385/551/19 384/550/19 382/547/19 380/543/19 48/65/19 49/66/19
f 335/467/20 236/338/20 94/144/20 235/337/20
f 334/466/21 251/360/21 100/151/21 253/363/21
f 333/465/22 252/362/22 102/155/22 247/355/22
f 150/226/23 365/510/23 42/57/23 172/252/23
f 239/342/24 369/525/24 242/347/24 317/449/24
f 332/464/25 273/396/25 112/178/25 264/381/25
f 356/492/26 358/497/26 360/503/26 354/488/26 352/484/26
f 353/486/2 355/491/2 157/233/2 31/42/2 29/38/2
f 365/511/27 40/55/27 178/258/27 174/254/27 42/57/27
f 330/462/28 243/349/28 90/138/28 237/339/28
f 30/40/29 29/39/29 31/41/29 32/43/29 154/230/29
f 329/461/6 155/231/6 30/40/6 154/230/6
f 32/43/30 31/41/30 50/67/30 51/69/30 184/265/30
f 27/35/31 353/485/31 29/39/31 30/40/31 155/231/31
f 328/460/32 160/237/32 36/50/32 159/235/32
f 327/459/33 163/241/33 36/51/33 160/236/33
f 326/458/34 164/242/34 34/47/34 158/234/34
f 325/457/35 165/244/35 33/44/35 161/238/35
f 324/456/5 169/249/5 39/54/5 167/247/5
f 166/246/4 170/250/4 37/52/4
f 323/455/6 171/251/6 39/54/6 169/249/6
f 322/454/36 176/256/36 41/56/36 175/255/36
f 321/453/37 174/254/37 44/59/37 173/253/37
f 174/254/38 178/258/38 44/59/38
f 320/452/39 177/257/39 43/58/39 173/253/39
f 176/256/40 172/252/40 41/56/40
f 319/451/41 268/387/41 47/63/41 180/261/41
f 318/450/42 244/351/42 102/155/42 278/407/42
f 317/449/43 242/347/43 92/141/43 238/341/43
f 142/217/44 21/28/44 240/343/44
f 238/340/45 92/140/45 377/539/45 379/541/45
f 315/447/46 276/402/46 104/159/46 250/358/46
f 314/446/47 267/385/47 105/160/47 259/373/47
f 180/260/37 47/64/37 383/549/37 385/552/37 316/448/37
f 313/445/48 190/273/48 55/76/48 189/272/48
f 162/240/49 35/48/49 185/267/49
f 312/444/50 184/265/50 51/69/50 183/264/50
f 311/443/51 186/268/51 53/72/51 181/262/51
f 188/271/52 56/77/52 196/283/52
f 310/442/53 191/274/53 57/79/53 187/270/53
f 309/441/54 192/276/54 56/77/54 188/271/54
f 190/273/55 193/278/55 54/74/55 55/76/55
f 58/82/56 60/85/56 201/289/56 64/91/56 62/88/56
f 55/76/57 54/74/57 58/81/57 59/83/57 197/284/57
f 308/440/58 197/284/58 59/83/58 195/281/58
f 307/439/59 198/285/59 61/86/59 194/280/59
f 306/438/60 206/296/60 67/97/60 205/295/60
f 59/83/61 58/81/61 62/89/61 63/90/61 202/291/61
f 305/437/62 202/291/62 63/90/62 200/288/62
f 304/436/63 203/292/63 65/93/63 199/287/63
f 66/95/64 68/98/64 72/106/64 70/102/64 210/301/64
f 199/287/65 65/93/65 207/297/65
f 62/88/66 64/91/66 68/98/66 66/95/66
f 206/296/67 204/294/67 67/97/67
f 303/435/68 215/309/68 74/110/68 213/306/68
f 302/434/69 210/302/69 70/103/69 208/299/69
f 301/433/70 211/303/70 71/104/70 209/300/70
f 68/99/71 69/100/71 212/304/71 73/107/71 72/105/71
f 300/432/72 220/315/72 79/118/72 219/314/72
f 299/431/73 216/310/73 75/111/73 214/307/73
f 72/105/74 73/107/74 217/311/74 77/114/74 76/112/74
f 70/102/75 72/106/75 76/113/75 74/109/75 215/308/75
f 78/116/76 80/119/76 84/127/76 82/123/76 225/322/76
f 76/112/77 77/114/77 221/316/77 81/121/77 80/120/77
f 74/109/78 76/113/78 80/119/78 78/116/78 222/318/78
f 298/430/79 222/319/79 78/117/79 218/313/79
f 297/429/80 230/329/80 87/132/80 229/328/80
f 296/428/81 225/323/81 82/124/81 223/320/81
f 295/427/82 226/324/82 83/125/82 224/321/82
f 80/120/83 81/121/83 227/325/83 85/128/83 84/126/83
f 228/327/84 86/131/84 88/133/84 89/137/84 229/328/84
f 84/126/85 85/128/85 231/330/85 89/136/85 88/134/85
f 82/123/86 84/127/86 88/135/86 86/130/86 232/332/86
f 294/426/87 232/333/87 86/131/87 228/327/87
f 293/425/88 270/390/88 46/62/88 179/259/88
f 292/424/89 234/335/89 93/143/89 235/337/89
f 291/423/90 241/345/90 45/60/90 269/388/90
f 95/145/91 96/146/91 357/495/91 367/515/91
f 97/147/92 98/148/92 369/521/92 239/342/92 359/498/92
f 359/501/93 239/342/93 317/449/93 241/346/93
f 240/344/94 334/466/94 253/363/94 367/514/94
f 96/146/2 95/145/2 98/148/2 97/147/2
f 290/422/95 246/353/95 100/152/95 247/355/95
f 289/421/96 255/367/96 27/35/96 153/229/96
f 288/420/97 280/410/97 26/34/97 151/227/97
f 287/419/98 277/404/98 28/36/98 152/228/98
f 286/418/6 248/356/6 103/158/6 250/358/6
f 285/417/99 258/372/99 107/164/99 259/373/99
f 284/416/100 262/378/100 112/181/100 263/379/100
f 283/415/101 262/377/101 111/177/101 265/382/101
f 282/414/102 256/369/102 105/160/102 267/385/102
f 316/448/103 385/552/103 384/550/103 382/547/103 381/544/103 375/535/103
f 45/61/104 238/340/104 379/541/104 387/555/104
f 106/161/3 269/389/3 389/558/3 268/386/3
f 260/374/105 282/414/105 267/385/105 109/170/105
f 110/171/106 266/383/106 282/414/106 260/374/106
f 266/383/107 106/163/107 256/369/107 282/414/107
f 258/371/108 283/415/108 265/382/108 107/164/108
f 108/165/109 264/380/109 283/415/109 258/371/109
f 264/380/110 112/179/110 262/377/110 283/415/110
f 260/375/111 284/416/111 263/379/111 110/175/111
f 109/170/112 261/376/112 284/416/112 260/375/112
f 261/376/113 111/177/113 262/378/113 284/416/113
f 256/369/114 285/417/114 259/373/114 105/160/114
f 106/163/115 257/370/115 285/417/115 256/369/115
f 257/370/116 108/168/116 258/372/116 285/417/116
f 249/357/6 286/418/6 250/358/6 104/159/6
f 99/149/6 245/352/6 286/418/6 249/357/6
f 245/352/6 101/154/6 248/356/6 286/418/6
f 355/489/117 152/228/117 326/458/117 165/245/117
f 271/392/118 359/499/118 241/345/118 291/423/118
f 271/393/119 110/172/119 277/404/119 287/419/119
f 254/365/120 288/420/120 151/227/120 25/33/120
f 100/153/121 279/408/121 288/420/121 254/365/121
f 279/408/122 112/180/122 280/410/122 288/420/122
f 277/405/123 289/421/123 153/229/123 28/37/123
f 110/173/124 278/406/124 289/421/124 277/405/124
f 278/406/125 102/155/125 255/367/125 289/421/125
f 244/351/126 290/422/126 247/355/126 102/155/126
f 101/154/127 245/352/127 290/422/127 244/351/127
f 245/352/128 99/149/128 246/353/128 290/422/128
f 266/384/129 291/423/129 269/388/129 106/162/129
f 110/174/130 271/392/130 291/423/130 266/384/130
f 272/394/131 292/424/131 235/337/131 94/144/131
f 108/166/132 274/398/132 292/424/132 272/394/132
f 274/398/133 92/142/133 234/335/133 292/424/133
f 378/540/134 376/536/134 372/529/134 374/532/134
f 269/389/3 45/60/3 387/556/3 389/558/3
f 274/399/135 108/167/135 270/390/135 293/425/135
f 230/329/87 294/426/87 228/327/87 87/132/87
f 83/125/87 223/320/87 294/426/87 230/329/87
f 223/320/87 82/124/87 232/333/87 294/426/87
f 87/132/84 228/327/84 229/328/84
f 227/326/136 295/427/136 224/321/136 85/129/136
f 81/122/137 219/314/137 295/427/137 227/326/137
f 219/314/138 79/118/138 226/324/138 295/427/138
f 226/324/81 296/428/81 223/320/81 83/125/81
f 79/118/81 218/313/81 296/428/81 226/324/81
f 218/313/81 78/117/81 225/323/81 296/428/81
f 231/331/139 297/429/139 229/328/139 89/137/139
f 85/129/140 224/321/140 297/429/140 231/331/140
f 224/321/141 83/125/141 230/329/141 297/429/141
f 220/315/79 298/430/79 218/313/79 79/118/79
f 75/111/79 213/306/79 298/430/79 220/315/79
f 213/306/79 74/110/79 222/319/79 298/430/79
f 217/312/142 299/431/142 214/307/142 77/115/142
f 73/108/143 209/300/143 299/431/143 217/312/143
f 209/300/144 71/104/144 216/310/144 299/431/144
f 221/317/145 300/432/145 219/314/145 81/122/145
f 77/115/146 214/307/146 300/432/146 221/317/146
f 214/307/147 75/111/147 220/315/147 300/432/147
f 212/305/148 301/433/148 209/300/148 73/108/148
f 69/101/149 205/295/149 301/433/149 212/305/149
f 205/295/150 67/97/150 211/303/150 301/433/150
f 211/303/69 302/434/69 208/299/69 71/104/69
f 67/97/69 204/294/69 302/434/69 211/303/69
f 204/294/69 66/96/69 210/302/69 302/434/69
f 216/310/68 303/435/68 213/306/68 75/111/68
f 71/104/68 208/299/68 303/435/68 216/310/68
f 208/299/68 70/103/68 215/309/68 303/435/68
f 63/90/67 62/89/67 66/96/67 204/294/67 206/296/67
f 64/92/151 199/287/151 207/297/151 69/100/151 68/99/151
f 201/290/63 304/436/63 199/287/63 64/92/63
f 60/84/63 194/280/63 304/436/63 201/290/63
f 194/280/63 61/86/63 203/292/63 304/436/63
f 203/293/152 305/437/152 200/288/152 65/94/152
f 61/87/153 195/281/153 305/437/153 203/293/153
f 195/281/154 59/83/154 202/291/154 305/437/154
f 207/298/155 306/438/155 205/295/155 69/101/155
f 65/94/156 200/288/156 306/438/156 207/298/156
f 200/288/157 63/90/157 206/296/157 306/438/157
f 196/282/59 307/439/59 194/280/59 60/84/59
f 56/78/59 187/270/59 307/439/59 196/282/59
f 187/270/59 57/79/59 198/285/59 307/439/59
f 198/286/158 308/440/158 195/281/158 61/87/158
f 57/80/159 189/272/159 308/440/159 198/286/159
f 189/272/160 55/76/160 197/284/160 308/440/160
f 51/69/55 50/67/55 193/278/55 190/273/55
f 193/279/161 309/441/161 188/271/161 54/75/161
f 50/68/162 182/263/162 309/441/162 193/279/162
f 182/263/163 52/71/163 192/276/163 309/441/163
f 192/277/53 310/442/53 187/270/53 56/78/53
f 52/70/53 181/262/53 310/442/53 192/277/53
f 181/262/53 53/72/53 191/274/53 310/442/53
f 54/75/164 188/271/164 196/283/164 60/85/164 58/82/164
f 185/266/51 311/443/51 181/262/51 52/70/51
f 35/49/51 159/235/51 311/443/51 185/266/51
f 159/235/51 36/50/51 186/268/51 311/443/51
f 186/269/165 312/444/165 183/264/165 53/73/165
f 36/51/166 163/241/166 312/444/166 186/269/166
f 163/241/167 32/43/167 184/265/167 312/444/167
f 162/240/168 185/267/168 182/263/168
f 182/263/169 185/267/169 52/71/169
f 31/42/170 162/240/170 182/263/170 50/68/170
f 191/275/171 313/445/171 189/272/171 57/80/171
f 53/73/172 183/264/172 313/445/172 191/275/172
f 183/264/173 51/69/173 190/273/173 313/445/173
f 265/382/174 314/446/174 259/373/174 107/164/174
f 111/177/175 261/376/175 314/446/175 265/382/175
f 261/376/176 109/170/176 267/385/176 314/446/176
f 275/400/177 315/447/177 250/358/177 103/158/177
f 110/175/178 263/379/178 315/447/178 275/400/178
f 263/379/179 112/181/179 276/402/179 315/447/179
f 377/538/180 293/425/180 179/259/180 373/531/180
f 46/62/37 180/260/37 316/448/37 179/259/37
f 268/386/3 389/558/3 383/549/3 47/64/3
f 144/219/3 22/29/3 357/493/3 102/156/3 252/361/3
f 241/346/181 317/449/181 238/341/181 45/61/181
f 359/500/182 271/393/182 287/419/182 361/504/182
f 242/348/183 369/522/183 243/349/183 330/462/183
f 275/401/184 318/450/184 278/407/184 110/176/184
f 103/158/185 248/356/185 318/450/185 275/401/185
f 248/356/186 101/154/186 244/351/186 318/450/186
f 270/391/187 319/451/187 180/261/187 46/62/187
f 108/168/188 257/370/188 319/451/188 270/391/188
f 257/370/189 106/163/189 268/387/189 319/451/189
f 176/256/40 150/226/40 172/252/40
f 26/34/40 150/226/40 176/256/40
f 331/463/190 371/528/190 365/512/190 150/226/190
f 178/258/39 320/452/39 173/253/39 44/59/39
f 40/55/39 167/247/39 320/452/39 178/258/39
f 167/247/39 39/54/39 177/257/39 320/452/39
f 367/516/191 369/524/191 98/148/191 95/145/191
f 175/255/37 321/453/37 173/253/37 43/58/37
f 41/56/37 172/252/37 321/453/37 175/255/37
f 172/252/37 42/57/37 174/254/37 321/453/37
f 177/257/36 322/454/36 175/255/36 43/58/36
f 39/54/36 171/251/36 322/454/36 177/257/36
f 171/251/36 26/34/36 176/256/36 322/454/36
f 170/250/6 323/455/6 169/249/6 37/52/6
f 25/33/6 151/227/6 323/455/6 170/250/6
f 151/227/6 26/34/6 171/251/6 323/455/6
f 368/519/192 366/513/192 362/506/192 364/509/192 370/526/192
f 168/248/5 324/456/5 167/247/5 40/55/5
f 38/53/5 166/246/5 324/456/5 168/248/5
f 166/246/5 37/52/5 169/249/5 324/456/5
f 162/240/193 325/457/193 161/238/193 35/48/193
f 31/42/194 157/233/194 325/457/194 162/240/194
f 361/504/195 287/419/195 152/228/195 355/490/195
f 165/245/34 326/458/34 158/234/34 33/45/34
f 96/146/196 97/147/196 359/501/196 357/494/196
f 152/228/34 28/36/34 164/242/34 326/458/34
f 164/243/197 327/459/197 160/236/197 34/46/197
f 28/37/198 156/232/198 327/459/198 164/243/198
f 156/232/199 32/43/199 163/241/199 327/459/199
f 161/239/32 328/460/32 159/235/32 35/49/32
f 33/45/32 158/234/32 328/460/32 161/239/32
f 158/234/32 34/47/32 160/237/32 328/460/32
f 156/232/6 329/461/6 154/230/6 32/43/6
f 28/37/6 153/229/6 329/461/6 156/232/6
f 153/229/6 27/35/6 155/231/6 329/461/6
f 234/336/200 330/462/200 237/339/200 93/143/200
f 92/141/201 242/348/201 330/462/201 234/336/201
f 336/468/202 243/350/202 369/523/202 281/413/202
f 280/411/203 331/463/203 150/226/203 26/34/203
f 112/182/204 281/412/204 331/463/204 280/411/204
f 272/395/205 332/464/205 264/381/205 108/169/205
f 94/144/206 236/338/206 332/464/206 272/395/206
f 236/338/207 91/139/207 273/396/207 332/464/207
f 24/32/3 144/219/3 252/361/3
f 251/359/208 333/465/208 247/355/208 100/152/208
f 23/31/209 145/220/209 333/465/209 251/359/209
f 145/220/210 24/32/210 252/362/210 333/465/210
f 22/30/211 142/217/211 240/343/211 367/515/211 357/495/211
f 21/28/212 143/218/212 334/466/212 240/344/212
f 143/218/213 23/31/213 251/360/213 334/466/213
f 237/339/20 335/467/20 235/337/20 93/143/20
f 90/138/20 233/334/20 335/467/20 237/339/20
f 233/334/20 91/139/20 236/338/20 335/467/20
f 387/555/214 379/541/214 375/534/214 381/545/214
f 92/142/215 274/399/215 293/425/215 377/537/215
f 363/508/4 25/33/4 170/250/4 166/246/4 38/53/4
f 273/397/216 336/468/216 281/413/216 112/183/216
f 91/139/217 233/334/217 336/468/217 273/397/217
f 233/334/218 90/138/218 243/350/218 336/468/218
f 276/403/219 337/469/219 249/357/219 104/159/219
f 112/184/220 279/409/220 337/469/220 276/403/220
f 279/409/221 100/153/221 246/354/221 337/469/221
f 149/224/2 338/470/2 142/217/2 22/30/2
f 18/24/2 135/210/2 338/470/2 149/224/2
f 135/210/2 17/23/2 148/223/2 338/470/2
f 146/221/3 339/471/3 144/219/3 24/32/3
f 20/27/3 137/212/3 339/471/3 146/221/3
f 137/212/3 18/25/3 149/225/3 339/471/3
f 148/223/5 340/472/5 143/218/5 21/28/5
f 17/23/5 136/211/5 340/472/5 148/223/5
f 136/211/5 19/26/5 147/222/5 340/472/5
f 140/215/13 341/473/13 136/211/13 17/23/13
f 13/18/13 129/203/13 341/473/13 140/215/13
f 129/203/13 15/21/13 141/216/13 341/473/13
f 141/216/12 342/474/12 138/213/12 19/26/12
f 15/21/12 130/204/12 342/474/12 141/216/12
f 130/204/12 16/22/12 139/214/12 342/474/12
f 128/202/11 140/215/11 135/210/11
f 135/210/11 140/215/11 17/23/11
f 14/19/11 128/202/11 135/210/11 18/24/11
f 147/222/6 343/475/6 145/220/6 23/31/6
f 19/26/6 138/213/6 343/475/6 147/222/6
f 138/213/6 20/27/6 146/221/6 343/475/6
f 131/205/6 344/476/6 130/204/6 15/21/6
f 11/16/6 123/196/6 344/476/6 131/205/6
f 123/196/6 12/17/6 134/209/6 344/476/6
f 133/207/2 345/477/2 128/202/2 14/19/2
f 10/15/2 121/194/2 345/477/2 133/207/2
f 121/194/2 9/13/2 132/206/2 345/477/2
f 12/17/3 10/14/3 133/208/3 134/209/3
f 16/22/10 14/20/10 18/25/10 137/212/10 139/214/10
f 124/197/9 346/478/9 121/194/9 10/15/9
f 7/8/9 117/190/9 346/478/9 124/197/9
f 117/190/9 3/3/9 127/201/9 346/478/9
f 126/200/8 347/479/8 123/196/8 11/16/8
f 1/1/8 119/192/8 347/479/8 126/200/8
f 119/192/8 5/5/8 125/199/8 347/479/8
f 127/201/7 348/480/7 122/195/7 9/13/7
f 3/3/7 118/191/7 348/480/7 127/201/7
f 118/191/7 1/1/7 126/200/7 348/480/7
f 132/206/5 349/481/5 129/203/5 13/18/5
f 9/13/5 122/195/5 349/481/5 132/206/5
f 122/195/5 11/16/5 131/205/5 349/481/5
f 113/185/6 350/482/6 114/187/6 2/2/6
f 6/6/6 116/189/6 350/482/6 113/185/6
f 116/189/6 5/5/6 119/192/6 350/482/6
f 120/193/5 351/483/5 115/188/5 4/4/5
f 2/2/5 114/187/5 351/483/5 120/193/5
f 114/187/5 1/1/5 118/191/5 351/483/5
f 6/7/4 113/186/4 120/193/4 4/4/4 8/11/4
f 4/4/2 115/188/2 117/190/2 7/8/2 8/12/2
f 5/5/1 7/9/1 124/198/1 125/199/1
f 352/484/222 354/488/222 355/491/222 353/486/222
f 358/497/223 356/492/223 357/494/223 359/501/223
f 356/492/224 352/484/224 353/486/224 357/495/224
f 361/505/225 355/491/225 354/488/225 360/503/225
f 359/502/226 361/505/226 360/503/226 358/497/226
f 102/157/227 357/496/227 353/487/227 27/35/227 255/368/227
f 363/507/228 365/511/228 364/509/228 362/506/228
f 366/513/229 368/519/229 369/524/229 367/516/229
f 362/506/230 366/513/230 367/517/230 363/507/230
f 371/527/231 369/525/231 368/519/231 370/526/231
f 365/512/232 371/528/232 370/526/232 364/509/232
f 367/518/233 253/364/233 254/366/233 25/33/233 363/508/233
f 377/538/234 373/531/234 372/529/234 376/536/234
f 373/530/235 375/533/235 374/532/235 372/529/235
f 378/540/236 374/532/236 375/534/236 379/541/236
f 376/536/237 378/540/237 379/541/237 377/539/237
f 179/259/238 316/448/238 375/535/238 373/531/238
f 380/542/239 381/545/239 382/546/239
f 383/548/37 384/550/37 385/552/37
f 387/555/240 381/545/240 380/542/240 386/553/240
f 388/557/3 384/550/3 383/549/3 389/558/3
f 386/554/3 388/557/3 389/558/3 387/556/3
f 388/557/3 386/554/3 380/543/3 382/547/3 384/550/3
